<svg xmlns="http://www.w3.org/2000/svg" version="1.1" xmlns:xlink="http://www.w3.org/1999/xlink" xmlns:svgjs="http://svgjs.dev/svgjs" width="2000" height="1500" viewBox="0 0 2000 1500"><rect width="2000" height="1500" fill="#2776ff"></rect><g transform="matrix(0.75,0,0,0.75,249.73641911589357,171.84352226720648)"><svg viewBox="0 0 320 247" data-background-color="#2776ff" preserveAspectRatio="xMidYMid meet" height="1543" width="2000" xmlns="http://www.w3.org/2000/svg" xmlns:xlink="http://www.w3.org/1999/xlink"><g id="tight-bounds" transform="matrix(1,0,0,1,0.056230588609366805,-0.09999999999999432)"><svg viewBox="0 0 319.88753882278127 247.2" height="247.2" width="319.88753882278127"><g><svg viewBox="0 0 395.5199999999999 305.64661680730956" height="247.2" width="319.88753882278127"><g transform="matrix(1,0,0,1,0,226.34184523370553)"><svg viewBox="0 0 395.5199999999999 79.30477157360406" height="79.30477157360406" width="395.5199999999999"><g id="textblocktransform"><svg viewBox="0 0 395.5199999999999 79.30477157360406" height="79.30477157360406" width="395.5199999999999" id="textblock"><g><svg viewBox="0 0 395.5199999999999 79.30477157360406" height="79.30477157360406" width="395.5199999999999"><g transform="matrix(1,0,0,1,0,0)"><svg width="395.5199999999999" viewBox="4.3 -35.1 177.28 35.550000000000004" height="79.30477157360406" data-palette-color="#ffffff"><path d="M19-12.85Q22.4-7.4 27.05-1.2L27.05-1.2 27-0.6Q24.6 0.2 22.05 0.45L22.05 0.45 21.45 0.05Q17.3-6.75 14.75-11.45L14.75-11.45 9.3-11.45 9.3-10.1 9.55 0 4.3 0 4.65-9.65 4.3-32.1 15.2-32.15Q20.05-32.15 22.7-29.73 25.35-27.3 25.35-22.8L25.35-22.8Q25.35-19.6 23.68-17.03 22-14.45 19-12.85L19-12.85ZM9.55-27.95L9.4-15.65 14.9-15.5Q19.95-17.05 19.95-22.4L19.95-22.4Q19.95-25.2 18.43-26.6 16.9-28 13.8-28.1L13.8-28.1 9.55-27.95ZM39.55-23.5Q43-23.5 45-21.85 47-20.2 47-17.25L47-17.25Q47-16.35 46.7-11.25L46.7-11.25Q46.4-6.25 46.4-5.4L46.4-5.4Q46.4-4.45 46.72-4.08 47.05-3.7 47.85-3.7L47.85-3.7Q48.35-3.7 49.35-3.9L49.35-3.9 49.8-3.55 49.3-0.75Q47.85 0.15 46.15 0.35L46.15 0.35Q44.6 0.2 43.65-0.78 42.7-1.75 42.5-3.35L42.5-3.35 42.15-3.35Q39.6-0.65 36.95 0.4L36.95 0.4Q33.5 0.35 31.52-1.4 29.55-3.15 29.55-6.15L29.55-6.15Q29.55-10.6 34.4-11.7L34.4-11.7 42.3-13.45 42.35-16.15Q42.35-18 41.42-18.95 40.5-19.9 38.75-19.9L38.75-19.9Q37.05-19.9 35.35-19.13 33.65-18.35 31.6-16.7L31.6-16.7 31.2-16.95 30.55-20.5Q34.95-23.5 39.55-23.5L39.55-23.5ZM42.3-10.5L35.8-8.95Q34.9-8.75 34.5-8.28 34.1-7.8 34.1-6.8L34.1-6.8Q34.1-5.3 34.92-4.45 35.75-3.6 37.15-3.6L37.15-3.6Q39.5-3.6 42.15-6.65L42.15-6.65 42.3-10.5ZM54.9 0L55.09-9.65 54.95-22.7 59.95-23.15 59.75-10.1 59.9 0 54.9 0ZM57.5-33.8Q58.75-33.8 59.45-33.08 60.15-32.35 60.15-31.05L60.15-31.05Q60.15-29.7 59.4-28.9 58.65-28.1 57.34-28.1L57.34-28.1Q56.05-28.1 55.32-28.85 54.59-29.6 54.59-30.9L54.59-30.9Q54.59-32.2 55.37-33 56.15-33.8 57.5-33.8L57.5-33.8ZM72.64-35.1L72.24-10.15 72.59 0 67.49 0 67.84-9.7 67.54-34.7 72.64-35.1ZM95.69-16.7Q99.04-16 100.67-14.08 102.29-12.15 102.29-9L102.29-9Q102.29 0.2 88.54 0.2L88.54 0.2Q83.79 0.2 80.74 0L80.74 0 80.69 0 81.04-9.65 80.69-32.1 90.69-32.15Q95.34-32.15 97.92-30.13 100.49-28.1 100.49-24.25L100.49-24.25Q100.49-21.55 99.24-19.63 97.99-17.7 95.69-16.7L95.69-16.7ZM95.19-23.65Q95.19-26.05 93.84-27.1 92.49-28.15 89.29-28.15L89.29-28.15 85.89-28.15 85.74-18.3 90.89-18.15Q93.09-18.7 94.14-20.03 95.19-21.35 95.19-23.65L95.19-23.65ZM89.39-3.8Q93.09-3.8 95.09-5.2 97.09-6.6 97.09-9.3L97.09-9.3Q97.09-13.6 91.54-14.35L91.54-14.35 85.69-14.3 85.64-10.1 85.79-3.95Q87.74-3.8 89.39-3.8L89.39-3.8ZM121.99 0L122.29-15.15Q122.34-17.05 121.41-18.13 120.49-19.2 118.74-19.2L118.74-19.2Q115.89-19.2 112.74-16.2L112.74-16.2 112.64-10.15 112.99 0 107.89 0 108.24-9.7 107.94-34.7 113.04-35.1 112.79-19.8 113.09-19.8Q116.04-22.4 119.24-23.35L119.24-23.35Q123.09-23.35 125.06-21.6 127.04-19.85 126.99-16.6L126.99-16.6 126.89-10.1 127.09 0 121.99 0ZM142.19-23.5Q145.64-23.5 147.64-21.85 149.64-20.2 149.64-17.25L149.64-17.25Q149.64-16.35 149.34-11.25L149.34-11.25Q149.03-6.25 149.03-5.4L149.03-5.4Q149.03-4.45 149.36-4.08 149.69-3.7 150.49-3.7L150.49-3.7Q150.99-3.7 151.99-3.9L151.99-3.9 152.44-3.55 151.94-0.75Q150.49 0.15 148.78 0.35L148.78 0.35Q147.24 0.2 146.28-0.78 145.34-1.75 145.14-3.35L145.14-3.35 144.78-3.35Q142.24-0.65 139.59 0.4L139.59 0.4Q136.14 0.35 134.16-1.4 132.19-3.15 132.19-6.15L132.19-6.15Q132.19-10.6 137.03-11.7L137.03-11.7 144.94-13.45 144.99-16.15Q144.99-18 144.06-18.95 143.14-19.9 141.39-19.9L141.39-19.9Q139.69-19.9 137.99-19.13 136.28-18.35 134.24-16.7L134.24-16.7 133.84-16.95 133.19-20.5Q137.59-23.5 142.19-23.5L142.19-23.5ZM144.94-10.5L138.44-8.95Q137.53-8.75 137.14-8.28 136.74-7.8 136.74-6.8L136.74-6.8Q136.74-5.3 137.56-4.45 138.39-3.6 139.78-3.6L139.78-3.6Q142.14-3.6 144.78-6.65L144.78-6.65 144.94-10.5ZM164.33-23.45Q167.33-23.45 170.18-22.3L170.18-22.3 169.48-18.3 168.83-18.15Q166.23-19.9 163.73-19.9L163.73-19.9Q162.23-19.9 161.36-19.1 160.48-18.3 160.48-17.15L160.48-17.15Q160.48-15.9 161.51-15.15 162.53-14.4 164.68-13.5L164.68-13.5Q166.63-12.65 167.86-11.9 169.08-11.15 169.96-9.9 170.83-8.65 170.83-6.8L170.83-6.8Q170.83-4.9 169.83-3.23 168.83-1.55 166.88-0.55 164.93 0.45 162.18 0.45L162.18 0.45Q158.73 0.45 155.18-1.1L155.18-1.1 155.78-5.35 156.33-5.7Q157.78-4.45 159.53-3.73 161.28-3 162.73-3L162.73-3Q164.33-3 165.31-3.88 166.28-4.75 166.28-5.95L166.28-5.95Q166.28-7.2 165.28-7.93 164.28-8.65 162.13-9.65L162.13-9.65Q160.18-10.5 158.93-11.25 157.68-12 156.81-13.3 155.93-14.6 155.93-16.5L155.93-16.5Q155.93-19.55 158.18-21.5 160.43-23.45 164.33-23.45L164.33-23.45ZM176.33 0L176.53-9.65 176.38-22.7 181.38-23.15 181.18-10.1 181.33 0 176.33 0ZM178.93-33.8Q180.18-33.8 180.88-33.08 181.58-32.35 181.58-31.05L181.58-31.05Q181.58-29.7 180.83-28.9 180.08-28.1 178.78-28.1L178.78-28.1Q177.48-28.1 176.76-28.85 176.03-29.6 176.03-30.9L176.03-30.9Q176.03-32.2 176.81-33 177.58-33.8 178.93-33.8L178.93-33.8Z" opacity="1" transform="matrix(1,0,0,1,0,0)" fill="#ffffff" class="wordmark-text-0" data-fill-palette-color="primary" id="text-0"></path></svg></g></svg></g></svg></g></svg></g><g transform="matrix(1,0,0,1,123.66565104974617,0)"><svg viewBox="0 0 148.18869790050758 207.61989197969538" height="207.61989197969538" width="148.18869790050758"><g><svg xmlns="http://www.w3.org/2000/svg" xmlns:xlink="http://www.w3.org/1999/xlink" version="1.1" x="0" y="0" viewBox="14.3125 0 71.375 100" xml:space="preserve" height="207.61989197969538" width="148.18869790050758" class="icon-icon-0" data-fill-palette-color="accent" id="icon-0"><path d="M49.75 0L22.031 2.5C19.789 2.5 17.969 3.912 17.969 5.656L19.906 68.219C19.906 69.964 21.727 71.375 23.969 71.375L34.063 72.125 14.313 100 21.594 100 39.156 75.5 60 75.469 77.813 100 85.688 100 65.938 72.125 76.031 71.375C78.273 71.375 80.094 69.964 80.094 68.219L82.031 5.656C82.031 3.912 80.212 2.5 77.969 2.5L49.75 0zM26.906 7.344L73.094 7.344C74.617 7.344 75.844 8.565 75.844 10.063L75.844 38.531C75.844 40.029 74.617 41.25 73.094 41.25L26.906 41.25C25.384 41.25 24.156 40.029 24.156 38.531L24.156 10.063C24.156 8.565 25.384 7.344 26.906 7.344zM33.688 51.688C37.018 51.688 39.719 54.388 39.719 57.719 39.719 61.05 37.018 63.75 33.688 63.75 30.356 63.75 27.656 61.05 27.656 57.719 27.656 54.388 30.356 51.688 33.688 51.688zM65.688 51.688C69.018 51.688 71.719 54.388 71.719 57.719 71.719 61.05 69.018 63.75 65.688 63.75 62.355 63.75 59.656 61.05 59.656 57.719 59.656 54.388 62.355 51.688 65.688 51.688zM38.656 84.063C38.232 84.063 37.875 84.498 37.875 85.031L37.875 85.625C37.875 86.158 38.232 86.563 38.656 86.563L61.344 86.563C61.767 86.563 62.125 86.158 62.125 85.625L62.125 85.031C62.125 84.498 61.767 84.063 61.344 84.063L38.656 84.063zM31.25 94.75C30.55 94.75 29.969 95.186 29.969 95.719L29.969 96.313C29.969 96.845 30.55 97.281 31.25 97.281L68.75 97.281C69.451 97.281 70.031 96.845 70.031 96.313L70.031 95.719C70.031 95.186 69.451 94.75 68.75 94.75L31.25 94.75z" fill="#ffffff" data-fill-palette-color="accent"></path></svg></g></svg></g><g></g></svg></g><defs></defs></svg><rect width="319.88753882278127" height="247.2" fill="none" stroke="none" visibility="hidden"></rect></g></svg></g></svg>